# xmcd
#
# Track frame offsets: 
#        150
#        16089
#        34027
#        50037
#        64193
#        83774
#        102607
#        112265
#        131993
#        151630
#        170285
#        192781
#
# Disc length: 3241 seconds
#
# Revision: 1
# Processed by: cddbd v1.5.2PL0 Copyright (c) Steve Scherf et al.
# Submitted via: ExactAudioCopy v0.99pb4
#
DISCID=9d0ca70c
DTITLE=Ben Andrews - Gallows Pole
DYEAR=1900
DGENRE=Blues
TTITLE0=C.C. Rider
TTITLE1=How Many More Years
TTITLE2=One Kind Favour
TTITLE3=Salty Dog
TTITLE4=Broke Down Engine
TTITLE5=Last Fair Deal Gone Down
TTITLE6=Butterfly
TTITLE7=Death Have No Mercy
TTITLE8=Stagolee
TTITLE9=Cocaine
TTITLE10=Mad With You Baby
TTITLE11=Gallows Pole
EXTD=
EXTT0=
EXTT1=
EXTT2=
EXTT3=
EXTT4=
EXTT5=
EXTT6=
EXTT7=
EXTT8=
EXTT9=
EXTT10=
EXTT11=
PLAYORDER=
